HIERARCHY
ROOT Hips
{
	OFFSET -3.958830 18.904000 13.208200
	CHANNELS 6 Xposition Yposition Zposition Zrotation Yrotation Xrotation 
	JOINT LHipJoint
	{
		OFFSET 0.000000 0.000000 0.000000
		CHANNELS 3 Zrotation Yrotation Xrotation
		JOINT LeftUpLeg
		{
			OFFSET 1.800000 -1.400000 0.085000
			CHANNELS 3 Zrotation Yrotation Xrotation
			JOINT LeftLeg
			{
				OFFSET 2.215000 -6.000000 0.000000
				CHANNELS 3 Zrotation Yrotation Xrotation
				JOINT LeftFoot
				{
					OFFSET 2.500000 -6.900000 0.000000
					CHANNELS 3 Zrotation Yrotation Xrotation
					JOINT LeftToeBase
					{
						OFFSET 0.200000 -0.500000 1.950000
						CHANNELS 3 Zrotation Yrotation Xrotation
						End Site
						{
							OFFSET 0.000000 0.000000 0.000000
						}
					}
				}
			}
		}
	}
	JOINT RHipJoint
	{
		OFFSET 0.000000 0.000000 0.000000
		CHANNELS 3 Zrotation Yrotation Xrotation
		JOINT RightUpLeg
		{
			OFFSET -1.800000 -1.400000 0.085000
			CHANNELS 3 Zrotation Yrotation Xrotation
			JOINT RightLeg
			{
				OFFSET -2.215000 -6.000000 0.000000
				CHANNELS 3 Zrotation Yrotation Xrotation
				JOINT RightFoot
				{
					OFFSET -2.500000 -6.900000 0.000000
					CHANNELS 3 Zrotation Yrotation Xrotation
					JOINT RightToeBase
					{
						OFFSET -0.200000 -0.500000 1.950000
						CHANNELS 3 Zrotation Yrotation Xrotation
						End Site
						{
							OFFSET 0.000000 0.000000 0.000000
						}
					}
				}
			}
		}
	}
	JOINT LowerBack
	{
		OFFSET 0.000000 0.000000 0.000000
		CHANNELS 3 Zrotation Yrotation Xrotation
		JOINT Spine
		{
			OFFSET -0.087000 1.940000 -0.288900
			CHANNELS 3 Zrotation Yrotation Xrotation
			JOINT Spine1
			{
				OFFSET 0.000000 1.950000 0.060000
				CHANNELS 3 Zrotation Yrotation Xrotation
				JOINT Neck
				{
					OFFSET 0.000000 0.000000 0.000000
					CHANNELS 3 Zrotation Yrotation Xrotation
					JOINT Neck1
					{
						OFFSET 0.000000 1.600000 0.340000
						CHANNELS 3 Zrotation Yrotation Xrotation
						JOINT Head
						{
							OFFSET 0.000000 1.667000 -0.240000
							CHANNELS 3 Zrotation Yrotation Xrotation
							End Site
							{
								OFFSET 0.000000 0.000000 0.000000
							}
						}
					}
				}
				JOINT LeftShoulder
				{
					OFFSET 0.000000 0.000000 0.000000
					CHANNELS 3 Zrotation Yrotation Xrotation
					JOINT LeftArm
					{
						OFFSET 2.700000 1.550000 -0.730000
						CHANNELS 3 Zrotation Yrotation Xrotation
						JOINT LeftForeArm
						{
							OFFSET 5.450000 0.000000 0.000000
							CHANNELS 3 Zrotation Yrotation Xrotation
							JOINT LeftHand
							{
								OFFSET 3.450000 0.000000 0.000000
								CHANNELS 3 Zrotation Yrotation Xrotation
								JOINT LeftHandIndex1
								{
									OFFSET 0.750000 0.000000 0.000000
									CHANNELS 3 Zrotation Yrotation Xrotation
									End Site
									{
										OFFSET 0.000000 0.000000 0.000000
									}
								}
							}
						}
					}
				}
				JOINT RightShoulder
				{
					OFFSET 0.000000 0.000000 0.000000
					CHANNELS 3 Zrotation Yrotation Xrotation
					JOINT RightArm
					{
						OFFSET -2.700000 1.550000 -0.730000
						CHANNELS 3 Zrotation Yrotation Xrotation
						JOINT RightForeArm
						{
							OFFSET -5.450000 0.000000 0.000000
							CHANNELS 3 Zrotation Yrotation Xrotation
							JOINT RightHand
							{
								OFFSET -3.450000 0.000000 0.000000
								CHANNELS 3 Zrotation Yrotation Xrotation
								JOINT RightHandIndex1
								{
									OFFSET -0.750000 0.000000 0.000000
									CHANNELS 3 Zrotation Yrotation Xrotation
									End Site
									{
										OFFSET 0.000000 0.000000 0.000000
									}
								}
							}
						}
					}
				}
			}
		}
	}
}
MOTION
Frames: 14
Frame Time: 0.016667
1.086070 17.251860 -1.131560 -1.567241 15.144322 1.327145 -15.313538 11.999332 2.812416 -2.870254 1.034551 -1.540786 -7.031562 4.232403 3.181413 -0.598771 4.293728 3.245693 0.377860 0.334270 0.062810 18.333598 -10.506843 3.501406 -5.672428 3.630711 -28.712067 5.226386 -1.822203 -3.360449 0.010404 -2.563784 3.306071 0.440740 0.584080 0.657560 -3.693047 0.893035 -7.396301 3.953951 3.827635 6.348440 2.686124 1.797668 9.253284 3.843263 6.836531 -10.906207 12.608849 -9.683749 22.669030 -8.719010 -4.228240 -7.947890 -15.282780 -17.360529 6.833889 -6.185795 -2.974598 0.309863 11.124918 -20.883567 -1.328416 -4.134231 3.013102 0.281250 0.570000 0.057130 0.350890 8.249376 16.610176 4.060022 20.596498 23.092041 -1.679121 0.556618 51.891345 0.180861 1.694068 -1.765329 -0.214150 0.151620 -0.020960 0.082780 
1.089180 17.252260 -1.126880 -1.532634 15.339214 1.288708 -15.315551 11.994426 2.797332 -2.966563 1.051757 -1.533943 -6.802121 4.226373 3.488251 -0.607655 4.276006 3.242301 0.393640 0.355390 0.087970 18.331426 -10.518431 3.507816 -5.735753 3.613273 -28.720675 5.240499 -1.816537 -3.455728 -0.002161 -2.571800 3.289671 0.452430 0.563970 0.668190 -3.690198 0.937425 -7.379262 3.928173 3.837955 6.282630 2.487865 1.784640 9.286769 4.143353 7.161078 -11.044700 13.273811 -10.241465 22.237081 -9.315130 -4.265700 -8.205500 -15.398745 -17.462567 6.808777 -5.932703 -2.996179 0.284835 11.458557 -21.044104 -1.373228 -4.135282 3.017531 0.281810 0.568460 0.075130 0.345990 7.730429 16.503622 4.267725 20.769998 22.591572 -2.005420 0.195352 53.245401 -0.121033 1.678567 -1.785566 -0.204580 0.142810 -0.031770 0.077260 
1.090640 17.247650 -1.116470 -1.654598 15.542851 1.193354 -15.303788 11.951763 2.786460 -2.752612 1.089010 -1.268930 -6.825685 4.201788 3.254311 -0.593564 4.274314 3.236297 0.427340 0.396920 0.111270 18.346577 -10.543685 3.516846 -5.538086 3.656455 -28.724454 5.130323 -1.773596 -3.638408 -0.017456 -2.571087 3.281099 0.472090 0.542480 0.678580 -3.731562 1.072211 -7.373756 4.236995 3.854100 6.112040 2.100993 1.796723 9.365406 4.411319 7.508057 -11.237582 14.038727 -11.218041 21.593979 -9.453590 -4.894030 -8.447050 -15.475651 -17.711042 6.832265 -5.480816 -2.952237 0.270747 11.561552 -21.350915 -1.373165 -4.117100 3.043433 0.274580 0.558820 0.094540 0.356570 7.192998 16.535095 4.534737 20.921382 22.157457 -2.335835 -0.532280 54.584543 -0.638229 1.665960 -1.819219 -0.183020 0.131160 -0.056450 0.084430 
1.085110 17.239300 -1.102090 -1.412898 16.037009 1.267159 -15.305791 11.914394 2.769214 -2.769415 1.145775 -1.178516 -6.872849 4.207630 3.255182 -0.588377 4.271870 3.228443 0.448190 0.434970 0.100910 18.351382 -10.564640 3.502205 -5.726152 3.595146 -28.874862 4.980415 -1.767546 -3.556440 -0.019994 -2.584466 3.269165 0.495770 0.541530 0.685490 -3.737301 1.177789 -7.321922 3.759270 3.989100 5.683091 2.127198 1.819083 9.422185 4.499142 7.941832 -11.372164 14.991532 -12.502818 20.747070 -9.188720 -6.002010 -8.507330 -15.448260 -17.949895 6.792969 -5.162857 -3.208651 0.281610 11.444551 -21.983790 -1.360544 -4.109561 3.070067 0.253880 0.559010 0.096840 0.369460 6.945820 16.516136 4.727017 21.255031 21.997550 -2.522253 -2.254845 55.142670 -1.592849 1.647168 -1.834881 -0.164370 0.128750 -0.062810 0.102720 
1.077350 17.230730 -1.092830 -1.208027 16.625687 1.180261 -15.320319 11.903990 2.751873 -2.680404 1.199983 -1.072376 -6.968526 4.262369 3.461953 -0.563485 4.273375 3.220810 0.480970 0.485430 0.107590 18.339693 -10.587105 3.483220 -5.866237 3.510604 -28.922627 4.790796 -1.763862 -3.405564 -0.027385 -2.590951 3.260344 0.519610 0.529210 0.694980 -3.703960 1.241382 -7.275238 3.122252 4.112207 5.430169 2.557309 1.764661 9.574306 4.597486 8.279075 -11.670811 15.810291 -13.922026 20.035068 -9.223720 -7.143350 -8.481710 -15.531257 -18.421808 6.870067 -5.179550 -3.610982 0.275467 11.688049 -21.902558 -1.388023 -4.098922 3.094922 0.227360 0.553870 0.109520 0.387500 6.795623 16.946460 5.023954 20.635816 21.511764 -2.916561 -3.395235 55.519684 -2.256478 1.643734 -1.866535 -0.134100 0.119630 -0.086380 0.124470 
1.071990 17.223510 -1.079750 -1.072605 17.171603 0.815957 -15.333459 11.905640 2.750581 -2.535645 1.316313 -0.621003 -6.995445 4.322203 3.579899 -0.559360 4.275939 3.214804 0.524710 0.545220 0.129910 18.323463 -10.626113 3.458579 -6.002375 3.367003 -28.619052 4.830099 -1.790208 -3.176358 -0.041302 -2.585304 3.273326 0.554990 0.495030 0.656990 -3.671238 1.304285 -7.258622 2.714926 4.199755 5.506058 2.841162 1.757697 9.759137 4.701953 8.573691 -12.055887 16.546344 -15.417059 19.784647 -8.756640 -8.521850 -9.322420 -15.335040 -18.933533 7.019551 -5.440497 -3.812233 0.200177 11.948017 -21.931709 -1.423909 -4.037691 3.065918 0.248750 0.512690 0.132310 0.405820 6.343010 17.483749 5.361728 20.023119 21.195047 -3.217332 -3.886592 55.311501 -2.545354 1.645446 -1.862670 -0.136860 0.145570 -0.124790 0.128690 
1.072140 17.218510 -1.068980 -1.043222 17.537490 0.441196 -15.337211 11.909792 2.765840 -2.411812 1.421612 -0.139873 -7.012796 4.354893 3.512225 -0.528014 4.281696 3.211432 0.532790 0.546090 0.136870 18.312199 -10.675480 3.438108 -5.944427 3.269920 -28.363564 4.854558 -1.847697 -2.797173 -0.043537 -2.577781 3.279929 0.543320 0.463970 0.643520 -3.659995 1.372946 -7.272953 2.617251 4.183003 5.586302 2.763457 1.703016 9.837794 4.719928 8.951527 -12.621850 17.427318 -17.021429 19.835321 -8.618850 -9.861770 -9.140770 -15.144592 -19.681018 7.449189 -5.532254 -3.387645 0.089725 11.970810 -21.888792 -1.400463 -3.982344 3.074986 0.263230 0.479470 0.145530 0.411010 5.970680 18.091010 5.792306 19.840361 20.826820 -3.528770 -4.165266 55.491860 -2.753467 1.662278 -1.874391 -0.128940 0.129090 -0.148040 0.133570 
1.076790 17.219870 -1.059720 -1.218744 17.648642 -0.057046 -15.333220 11.914050 2.785769 -2.065233 1.524022 0.407011 -7.204035 4.433296 3.336436 -0.477951 4.310110 3.207954 0.504450 0.503570 0.133150 18.302448 -10.728934 3.436758 -5.842977 3.205165 -27.889478 5.185913 -1.918748 -2.564535 -0.043934 -2.570495 3.295776 0.499840 0.436320 0.618660 -3.662208 1.455159 -7.328396 2.967830 4.202562 5.890761 2.526442 1.762784 9.825170 4.643638 9.319528 -13.343668 18.325921 -18.890077 20.095206 -8.567870 -11.414010 -8.867520 -15.028071 -20.583663 7.978735 -5.602916 -2.716346 -0.058288 11.764618 -21.897796 -1.337157 -3.936362 3.056056 0.278800 0.443280 0.152600 0.395880 5.781929 18.851647 6.414783 19.674802 19.946651 -4.209767 -4.574110 56.223963 -3.079309 1.680735 -1.859109 -0.125980 0.124900 -0.148240 0.132270 
1.074180 17.221060 -1.053150 -1.315078 17.794928 -0.318885 -15.332510 11.914118 2.787371 -1.880251 1.551403 0.630358 -7.118416 4.435107 3.350161 -0.456542 4.288576 3.208136 0.517600 0.521480 0.136990 18.296373 -10.770119 3.435639 -5.654852 3.185890 -27.702156 5.308677 -1.946658 -2.341239 -0.048192 -2.559892 3.302244 0.500050 0.407050 0.606450 -3.661524 1.529074 -7.343925 3.065782 4.231210 6.024979 2.544618 1.764549 9.860993 4.609727 9.518197 -13.799577 18.955228 -20.506601 19.797509 -8.464340 -12.822770 -8.971490 -14.963803 -21.105886 8.231269 -5.618023 -2.353264 -0.124456 11.273099 -22.162269 -1.241015 -3.889366 3.067867 0.281480 0.414270 0.167130 0.401180 5.638596 19.387843 6.826338 19.250047 19.222036 -4.711329 -4.519968 56.948446 -3.203954 1.689864 -1.880568 -0.111300 0.116340 -0.167120 0.141690 
1.068710 17.224050 -1.042490 -1.357890 17.959555 -0.368005 -15.334154 11.913004 2.773547 -1.725976 1.582049 0.638211 -7.128397 4.474995 3.511930 -0.427590 4.263346 3.215340 0.504200 0.534810 0.108940 18.291298 -10.795084 3.440313 -5.508186 3.165335 -27.508425 5.366630 -1.941215 -2.414595 -0.045147 -2.566021 3.317113 0.498600 0.402830 0.591450 -3.654704 1.583583 -7.341543 2.965167 4.287444 5.941037 2.627553 1.769528 9.725622 4.553276 9.776294 -14.123483 19.708155 -22.140936 19.328808 -8.709120 -14.094760 -8.697420 -15.314837 -21.556137 8.463385 -5.558435 -1.968286 -0.199288 11.446264 -22.295974 -1.227442 -3.867214 3.068051 0.260450 0.407800 0.175190 0.413050 5.965846 19.779862 7.071029 18.786491 18.752942 -4.931002 -4.494820 57.122761 -3.218876 1.704927 -1.883817 -0.100230 0.124200 -0.176130 0.167350 
1.067430 17.223830 -1.022250 -1.435379 18.046369 -0.219265 -15.322516 11.886269 2.753800 -1.582245 1.570473 0.581147 -7.165000 4.485270 3.550659 -0.417024 4.259051 3.221169 0.496870 0.537190 0.084900 18.305807 -10.821318 3.441828 -5.219041 3.198306 -27.434030 5.276127 -1.914432 -2.487459 -0.031296 -2.582191 3.322093 0.502850 0.416460 0.590270 -3.691377 1.678854 -7.318899 3.005312 4.351081 5.535075 2.564914 1.796751 9.676813 4.455415 9.850701 -14.258939 20.101886 -23.330436 18.342777 -8.890990 -15.089510 -8.066520 -15.572766 -21.775536 8.542391 -5.314104 -1.689464 -0.189199 11.328129 -22.555993 -1.187261 -3.868060 3.090909 0.230130 0.420260 0.159690 0.424090 6.290102 19.960541 7.265524 18.520822 18.139740 -5.182175 -4.341054 57.989642 -3.297506 1.701394 -1.918721 -0.094370 0.121570 -0.177530 0.185900 
1.066220 17.224960 -1.007590 -1.541436 18.015064 -0.341372 -15.321268 11.883821 2.739526 -1.333061 1.589318 0.629182 -7.360058 4.574664 3.772257 -0.408797 4.274589 3.210477 0.499290 0.552330 0.085060 18.304767 -10.841342 3.443856 -5.077570 3.183724 -27.123994 5.398157 -1.918006 -2.583903 -0.039047 -2.593421 3.322302 0.509080 0.406320 0.583090 -3.691649 1.725699 -7.313136 3.032366 4.409231 5.470849 2.557880 1.824986 9.637222 4.512427 9.992184 -14.443264 20.596631 -24.216176 17.898018 -9.104270 -15.669620 -8.285210 -15.758812 -21.989414 8.648427 -5.040872 -1.327473 -0.179894 11.000043 -22.771591 -1.120986 -3.857502 3.087693 0.226170 0.413290 0.169220 0.423530 6.287790 20.169070 7.402812 18.250728 17.905706 -5.272843 -3.902937 58.291539 -3.125996 1.701058 -1.922677 -0.088530 0.130380 -0.180450 0.190710 
1.064200 17.225650 -1.000300 -1.613148 17.751817 -0.471282 -15.324292 11.872504 2.742550 -1.230861 1.624375 0.811213 -7.448639 4.594057 3.699842 -0.417095 4.287156 3.202457 0.510800 0.572830 0.096210 18.302990 -10.863301 3.432306 -4.864662 3.180118 -26.963541 5.286932 -1.919102 -2.474315 -0.042267 -2.582920 3.323312 0.527360 0.394800 0.570090 -3.680030 1.782348 -7.301842 2.958848 4.532544 5.458014 2.653997 1.889382 9.732220 4.662713 10.101235 -14.637777 21.031640 -24.728220 17.639204 -9.187220 -15.982240 -8.621470 -15.815035 -22.128002 8.747771 -5.066347 -1.090011 -0.169669 11.029982 -22.674193 -1.122114 -3.843124 3.074291 0.235790 0.402890 0.179110 0.424210 6.026081 20.408260 7.485760 17.918887 17.994901 -5.236475 -3.488840 58.046550 -2.907482 1.699950 -1.927374 -0.096850 0.143390 -0.190350 0.188400 
1.063760 17.225530 -0.986630 -1.606541 17.637531 -0.440890 -15.326884 11.849656 2.739130 -1.200907 1.665034 0.959194 -7.501653 4.594205 3.562197 -0.429248 4.305075 3.194034 0.524550 0.597890 0.098850 18.306237 -10.870279 3.421731 -4.792755 3.180344 -26.859712 5.327804 -1.921004 -2.444791 -0.043055 -2.592263 3.324614 0.550050 0.398940 0.564550 -3.675635 1.834850 -7.272457 2.803850 4.658641 5.240607 2.810269 1.933145 9.846892 4.793215 10.117605 -14.662292 21.263897 -25.181726 17.038158 -9.373330 -16.272630 -8.926200 -16.038659 -22.138898 8.711866 -4.874876 -1.023034 -0.076558 10.791007 -22.561653 -1.088747 -3.855906 3.067714 0.227120 0.409430 0.175200 0.426670 6.002354 20.539373 7.493769 17.457313 17.963065 -5.229844 -3.391668 57.864740 -2.843206 1.681194 -1.933430 -0.097610 0.162570 -0.187550 0.188320 
